<svg width="32" height="32" viewBox="0 0 32 32" fill="none" xmlns="http://www.w3.org/2000/svg">
<path d="M5 30C4.73478 30 4.48043 29.8946 4.29289 29.7071C4.10536 29.5196 4 29.2652 4 29V4.25812C4.00007 3.99611 4.06877 3.73869 4.19926 3.51149C4.32975 3.28428 4.51748 3.09522 4.74375 2.96312C5.5 2.52375 7.02375 2 10 2C12.3256 2 14.9269 2.91938 17.2219 3.73C19.07 4.38313 20.8156 5 22 5C23.5246 4.99532 25.0331 4.68726 26.4375 4.09375C26.6085 4.02156 26.7947 3.99281 26.9796 4.01007C27.1644 4.02732 27.3421 4.09004 27.4968 4.19264C27.6515 4.29524 27.7784 4.43452 27.8662 4.59808C27.954 4.76163 28 4.94437 28 5.13V18.84C27.9998 19.083 27.9287 19.3207 27.7955 19.5239C27.6623 19.7272 27.4727 19.8872 27.25 19.9844C26.7056 20.2225 24.7181 21 22 21C20.4912 21 18.6012 20.5538 16.6006 20.0806C14.3519 19.5494 12.0269 19 10 19C7.69563 19 6.51625 19.3487 6 19.5694V29C6 29.2652 5.89464 29.5196 5.70711 29.7071C5.51957 29.8946 5.26522 30 5 30Z" fill="#F2DD22"/>
</svg>
