<svg width="16" height="14" viewBox="0 0 16 14" fill="none" xmlns="http://www.w3.org/2000/svg">
<path d="M1 0.0299988C0.447715 0.0299988 0 0.477714 0 1.03C0 1.58228 0.447715 2.03 1 2.03H15C15.5523 2.03 16 1.58228 16 1.03C16 0.477714 15.5523 0.0299988 15 0.0299988H1ZM1 5.97C0.447716 5.97 0 6.41771 0 6.97C0 7.52228 0.447715 7.97 1 7.97H15C15.5523 7.97 16 7.52228 16 6.97C16 6.41771 15.5523 5.97 15 5.97H1ZM1 11.97C0.447716 11.97 0 12.4177 0 12.97C0 13.5223 0.447716 13.97 1 13.97H15C15.5523 13.97 16 13.5223 16 12.97C16 12.4177 15.5523 11.97 15 11.97H1Z" fill="#343223"/>
</svg>
