<svg width="32" height="32" viewBox="0 0 32 32" fill="none" xmlns="http://www.w3.org/2000/svg">
<g clip-path="url(#clip0_10_178)">
<path d="M16 2.66663C23.364 2.66663 29.3333 8.63596 29.3333 16C29.3333 23.364 23.364 29.3333 16 29.3333C8.63599 29.3333 2.66666 23.364 2.66666 16C2.66666 8.63596 8.63599 2.66663 16 2.66663ZM16 21.3333C15.6464 21.3333 15.3072 21.4738 15.0572 21.7238C14.8071 21.9739 14.6667 22.313 14.6667 22.6666C14.6667 23.0202 14.8071 23.3594 15.0572 23.6094C15.3072 23.8595 15.6464 24 16 24C16.3536 24 16.6927 23.8595 16.9428 23.6094C17.1928 23.3594 17.3333 23.0202 17.3333 22.6666C17.3333 22.313 17.1928 21.9739 16.9428 21.7238C16.6927 21.4738 16.3536 21.3333 16 21.3333ZM16 8.66663C14.7181 8.66663 13.4887 9.17585 12.5823 10.0823C11.6759 10.9887 11.1667 12.2181 11.1667 13.5C11.1667 13.8536 11.3071 14.1927 11.5572 14.4428C11.8072 14.6928 12.1464 14.8333 12.5 14.8333C12.8536 14.8333 13.1927 14.6928 13.4428 14.4428C13.6928 14.1927 13.8333 13.8536 13.8333 13.5C13.8338 13.1067 13.9412 12.7209 14.1442 12.3841C14.3472 12.0472 14.6381 11.772 14.9856 11.5879C15.3331 11.4037 15.7242 11.3177 16.1169 11.3389C16.5096 11.3601 16.8892 11.4878 17.2148 11.7083C17.5405 11.9288 17.7999 12.2338 17.9655 12.5906C18.131 12.9473 18.1962 13.3424 18.1543 13.7335C18.1124 14.1245 17.9648 14.4968 17.7274 14.8103C17.4899 15.1239 17.1717 15.3669 16.8067 15.5133C15.9053 15.8733 14.6667 16.796 14.6667 18.3333V18.6666C14.6667 19.0202 14.8071 19.3594 15.0572 19.6094C15.3072 19.8595 15.6464 20 16 20C16.3536 20 16.6927 19.8595 16.9428 19.6094C17.1928 19.3594 17.3333 19.0202 17.3333 18.6666C17.3333 18.3413 17.4 18.1786 17.6813 18.04L17.7973 17.9866C18.8384 17.5678 19.7014 16.7999 20.2383 15.8145C20.7752 14.8291 20.9526 13.6877 20.7402 12.5858C20.5277 11.4839 19.9385 10.4903 19.0736 9.77525C18.2088 9.0602 17.1222 8.66826 16 8.66663Z" fill="#F2DD22"/>
</g>
<defs>
<clipPath id="clip0_10_178">
<rect width="32" height="32" fill="white"/>
</clipPath>
</defs>
</svg>
