<svg width="93" height="26" viewBox="0 0 93 26" fill="none" xmlns="http://www.w3.org/2000/svg">
<path d="M1.12152 18.6506L2.91392 5.8C3.36962 2.54937 4.58481 1 6.65063 1C8.38228 1 10.3266 2.15443 10.3266 4.46329C10.3266 5.25316 10.0835 6.19494 9.50633 7.28861L3.0962 19.1975C2.57975 20.1392 2.21519 20.9595 2.21519 21.5671C2.21519 22.357 2.88354 22.8734 3.4 22.8734C4.03797 22.8734 4.91899 22.2051 6.46835 21.0203L9.26329 18.8633C10.4177 17.9823 11.481 17.6177 12.3924 17.6177C14.3975 17.6177 15.7342 19.3494 15.7342 21.081C15.7342 22.8127 14.4278 24.5443 11.238 24.5443H5.1924C1.88101 24.5443 1 23.4203 1 20.2911C1 19.8051 1.03038 19.2582 1.12152 18.6506Z" fill="#F2DD22"/>
<path d="M28.754 25C21.7059 25 17.9996 20.8987 17.9996 12.9392C17.9996 4.97975 21.7059 1 28.754 1C35.8325 1 39.5388 4.97975 39.5388 12.9392C39.5388 20.8987 35.8325 25 28.754 25ZM29.2705 22.357L37.2907 12.6658C38.3237 11.4203 38.0199 10.0532 36.5616 9.47595L25.0477 4.85823C22.6173 3.88608 20.7034 5.46582 21.5844 8.32152L25.6857 21.4152C26.1718 22.9949 28.1161 23.724 29.2705 22.357Z" fill="#F2DD22"/>
<path d="M50.8199 7.25823L51.7009 8.38228C52.8554 9.84051 52.7339 11.4506 50.8807 12.6962L45.9896 16.038C43.7111 17.5873 45.7161 21.2937 48.0554 19.8962L60.906 12.2405C63.8225 10.5089 66.0098 11.5418 66.1313 14.0329L66.4351 20.4127C66.587 23.6937 65.0984 25 62.8503 25C60.6022 25 58.8098 22.6608 60.8149 19.5924L64.0655 14.5797C64.7035 13.6076 63.944 12.9089 63.2756 12.9089C62.6984 12.9089 62.2427 12.9696 61.149 14.4278L56.1668 20.9291C53.8275 23.9975 52.5516 25 49.8174 25C46.2326 25 42.8908 21.1114 42.8908 13.4253C42.8908 5.52658 47.6604 1 54.5566 1C60.3288 1 64.1566 2.88354 65.0984 6.1038C65.949 8.95949 61.787 10.7519 59.8731 8.23038L56.5009 3.79494C55.4984 2.48861 53.5237 1.85063 51.7009 2.64051C49.5744 3.5519 49.6959 5.86076 50.8199 7.25823Z" fill="#F2DD22"/>
<path d="M80.8209 1C87.8994 1 91.6057 5.10126 91.6057 13.0608C91.6057 21.0203 87.8994 25 80.8209 25C73.7728 25 70.0665 21.0203 70.0665 13.0608C70.0665 5.10126 73.7728 1 80.8209 1ZM89.3576 13.3342L81.3373 3.64304C80.1829 2.27595 78.2386 3.00506 77.7525 4.58481L73.6513 17.6785C72.7702 20.5342 74.6842 22.1139 77.1145 21.1418L88.6285 16.5241C90.0867 15.9468 90.3905 14.5797 89.3576 13.3342Z" fill="#F2DD22"/>
<path fill-rule="evenodd" clip-rule="evenodd" d="M9.26329 18.8633C10.4177 17.9823 11.481 17.6177 12.3924 17.6177C14.3975 17.6177 15.7342 19.3494 15.7342 21.081C15.7342 22.8127 14.4278 24.5443 11.238 24.5443H5.1924C1.88101 24.5443 1 23.4203 1 20.2911C1 19.8051 1.03038 19.2582 1.12152 18.6506L2.91392 5.8C3.36962 2.54937 4.58481 1 6.65063 1C8.38228 1 10.3266 2.15443 10.3266 4.46329C10.3266 5.25316 10.0835 6.19494 9.50633 7.28861L3.0962 19.1975C2.57975 20.1392 2.21519 20.9595 2.21519 21.5671C2.21519 22.357 2.88354 22.8734 3.4 22.8734C4.03797 22.8734 4.91899 22.2051 6.46835 21.0203L9.26329 18.8633ZM5.85894 20.2274L5.8609 20.2259L8.65661 18.0683C9.93699 17.0912 11.2079 16.6177 12.3924 16.6177C15.0457 16.6177 16.7342 18.8982 16.7342 21.081C16.7342 22.2032 16.3065 23.3501 15.3493 24.2071C14.3957 25.0608 13.0113 25.5443 11.238 25.5443H5.1924C3.48358 25.5443 2.06188 25.2682 1.12708 24.2774C0.206754 23.302 0 21.8817 0 20.2911C0 19.7639 0.0329253 19.1686 0.131801 18.5075L1.92351 5.66186C2.16176 3.96237 2.6147 2.56005 3.38994 1.56603C4.20715 0.518196 5.32407 0 6.65063 0C8.74182 0 11.3266 1.42735 11.3266 4.46329C11.3266 5.45729 11.0218 6.55961 10.3907 7.75537L10.3869 7.76259L3.97304 19.6783C3.7231 20.1341 3.52632 20.5313 3.39353 20.8713C3.25635 21.2226 3.21519 21.4446 3.21519 21.5671C3.21519 21.6649 3.25293 21.7423 3.31516 21.8035C3.3478 21.8356 3.38142 21.8568 3.40669 21.8682C3.40907 21.8692 3.41124 21.8701 3.41319 21.8709C3.43432 21.8667 3.47782 21.8556 3.54894 21.8262C3.66979 21.7763 3.83295 21.6896 4.05427 21.5483C4.50371 21.2613 5.07237 20.8289 5.85894 20.2274ZM25.6857 21.4152C26.1718 22.9949 28.1161 23.724 29.2705 22.357L37.2907 12.6658C38.3237 11.4203 38.0199 10.0532 36.5616 9.47595L25.0477 4.85823C22.6173 3.88608 20.7034 5.46582 21.5844 8.32152L25.6857 21.4152ZM22.5394 8.02473L22.54 8.02672L26.6415 21.1211C26.7881 21.5977 27.1492 21.9228 27.5167 22.0339C27.8458 22.1333 28.1983 22.0746 28.5038 21.715L28.5065 21.7118L36.5203 12.0283C36.8964 11.5748 36.9278 11.2296 36.8851 11.0413C36.8453 10.8657 36.6913 10.6028 36.1936 10.4058L36.1894 10.4041L24.6763 5.78671C23.7029 5.39733 23.0644 5.59681 22.7584 5.88384C22.4568 6.16668 22.17 6.82562 22.5394 8.02473ZM51.607 6.64135L52.485 7.76158L52.4864 7.76332C53.1804 8.64066 53.5802 9.68186 53.4063 10.776C53.2322 11.8709 52.5186 12.7993 51.4419 13.5239L51.4385 13.5262L46.5519 16.8649C45.9297 17.288 45.8478 17.9969 46.1714 18.5983C46.3308 18.8945 46.5555 19.084 46.7673 19.1611C46.9496 19.2274 47.2006 19.242 47.5425 19.0377L47.5436 19.0371L60.3955 11.3806C61.9954 10.4307 63.6018 10.1152 64.9229 10.6187C66.3062 11.146 67.0549 12.4423 67.1301 13.9842L67.1302 13.9853L67.434 20.3651L67.4341 20.3664C67.5163 22.1438 67.1652 23.5847 66.3006 24.5891C65.4195 25.6127 64.1651 26 62.8503 26C61.3822 26 60.0037 25.2308 59.3411 23.8898C58.6671 22.5256 58.8351 20.7947 59.9769 19.0467L59.9777 19.0454L63.2294 14.0311C63.2633 13.9796 63.2822 13.9404 63.2929 13.9133C63.2841 13.9103 63.276 13.909 63.276 13.909C63.0536 13.909 63.0167 13.9202 62.9279 13.9746C62.7713 14.0703 62.4763 14.3249 61.949 15.0278L61.9428 15.0362L56.962 21.5354C55.7897 23.073 54.799 24.2126 53.6941 24.9478C52.5368 25.7178 51.3272 26 49.8174 26C47.6277 26 45.6083 24.8039 44.1768 22.6481C42.7536 20.505 41.8908 17.4011 41.8908 13.4253C41.8908 9.27347 43.148 5.8976 45.4197 3.55455C47.6931 1.20974 50.8853 0 54.5566 0C60.416 0 64.9126 1.91149 66.0575 5.82071C66.6628 7.85722 65.4274 9.47192 63.9077 10.1064C62.389 10.7404 60.3557 10.5196 59.077 8.8356M59.077 8.8356L55.7076 4.40376L55.7061 4.40179C54.9771 3.45384 53.4919 2.9543 52.0985 3.55806L52.0949 3.55966C51.3665 3.87182 51.0915 4.36508 51.0355 4.87608C50.9733 5.4436 51.1807 6.11122 51.5991 6.63147L51.607 6.64135M56.5009 3.79494L59.8731 8.23038C61.787 10.7519 65.949 8.95949 65.0984 6.1038C64.1566 2.88354 60.3288 1 54.5566 1C47.6604 1 42.8908 5.52658 42.8908 13.4253C42.8908 21.1114 46.2326 25 49.8174 25C52.5516 25 53.8275 23.9975 56.1668 20.9291L61.149 14.4278C62.2427 12.9696 62.6984 12.9089 63.2756 12.9089C63.944 12.9089 64.7035 13.6076 64.0655 14.5797L60.8149 19.5924C58.8098 22.6608 60.6022 25 62.8503 25C65.0984 25 66.587 23.6937 66.4351 20.4127L66.1313 14.0329C66.0098 11.5418 63.8225 10.5089 60.906 12.2405L48.0554 19.8962C45.7161 21.2937 43.7111 17.5873 45.9896 16.038L50.8807 12.6962C52.7339 11.4506 52.8554 9.84051 51.7009 8.38228L50.8199 7.25823C49.6959 5.86076 49.5744 3.5519 51.7009 2.64051C53.5237 1.85063 55.4984 2.48861 56.5009 3.79494ZM88.5872 13.9717L80.5733 4.28822L80.5706 4.285C80.2651 3.92541 79.9126 3.86667 79.5836 3.96611C79.216 4.07717 78.8549 4.40233 78.7083 4.8789L78.7068 4.88372L74.6068 17.9733L74.6061 17.9756C74.2369 19.1745 74.5237 19.8333 74.8252 20.1162C75.1312 20.4031 75.7694 20.6025 76.7423 20.2136M76.7423 20.2136L88.2604 15.5942C88.7582 15.3972 88.9121 15.1343 88.952 14.9587C88.9946 14.7704 88.9632 14.4252 88.5872 13.9717M73.6513 17.6785L77.7525 4.58481C78.2386 3.00506 80.1829 2.27595 81.3373 3.64304L89.3576 13.3342C90.3905 14.5797 90.0867 15.9468 88.6285 16.5241L77.1145 21.1418C74.6842 22.1139 72.7702 20.5342 73.6513 17.6785ZM19.9885 22.6212C17.9568 20.3504 16.9996 17.0568 16.9996 12.9392C16.9996 8.82192 17.9567 5.55466 19.9936 3.31242C22.0462 1.05276 25.0429 0 28.754 0C32.4791 0 35.4834 1.05206 37.5404 3.31165C39.5817 5.55414 40.5388 8.82196 40.5388 12.9392C40.5388 17.0567 39.5817 20.3509 37.5454 22.622C35.4917 24.9125 32.4877 26 28.754 26C25.0343 26 22.0379 24.9117 19.9885 22.6212ZM89.6123 3.378C91.6485 5.64906 92.6057 8.94325 92.6057 13.0608C92.6057 17.178 91.6486 20.4459 89.6072 22.6884C87.5503 24.9479 84.546 26 80.8209 26C77.1097 26 74.1131 24.9472 72.0604 22.6876C70.0236 20.4453 69.0665 17.1781 69.0665 13.0608C69.0665 8.94321 70.0236 5.64958 72.0554 3.37877C74.1048 1.08828 77.1011 0 80.8209 0C84.5546 0 87.5586 1.08753 89.6123 3.378ZM17.9996 12.9392C17.9996 20.8987 21.7059 25 28.754 25C35.8325 25 39.5388 20.8987 39.5388 12.9392C39.5388 4.97975 35.8325 1 28.754 1C21.7059 1 17.9996 4.97975 17.9996 12.9392ZM91.6057 13.0608C91.6057 5.10126 87.8994 1 80.8209 1C73.7728 1 70.0665 5.10126 70.0665 13.0608C70.0665 21.0203 73.7728 25 80.8209 25C87.8994 25 91.6057 21.0203 91.6057 13.0608Z" fill="#343223"/>
</svg>
